<svg xmlns="http://www.w3.org/2000/svg" width="11.084" height="9.679" viewBox="0 0 11.084 9.679"><defs><style>.a{fill:#b158a1;}</style></defs><path class="a" d="M10.823,19.211l-.77-1.075a1,1,0,0,0-.736-.378h-2.4v-.226h2.2a.44.44,0,0,0,.44-.44V15.538a.44.44,0,0,0-.44-.44H6.4a.44.44,0,0,0-.44.44v.178H4.385a.347.347,0,0,0-.347.347v1.122a.347.347,0,0,0,.347.347H6.624v.226H3.832a.944.944,0,0,0-.722.393L2.022,19.837a1.421,1.421,0,0,1-.575.467l-1,.384A.743.743,0,0,0,0,21.341v1.9a.509.509,0,0,0,.509.509h.529a1.422,1.422,0,0,0,2.732,0H6.813a1.422,1.422,0,0,0,2.732,0h1.03a.509.509,0,0,0,.509-.509v-3.22A1.607,1.607,0,0,0,10.823,19.211Zm-5.074-.777h.875v1.881l-1.049.044ZM2.4,24.061a.707.707,0,1,1,.707-.707A.707.707,0,0,1,2.4,24.061Zm.467-3.587c-.186.008-.258-.116-.162-.274l.9-1.477a.671.671,0,0,1,.514-.289h1l-.176,1.952ZM6.913,20.3V18.434h.623L7.7,20.269Zm1.267,3.758a.707.707,0,1,1,.707-.707A.707.707,0,0,1,8.179,24.061Zm1.614-3.88-1.467.062-.164-1.809h.988a.523.523,0,0,1,.456.317l.407,1.1A.232.232,0,0,1,9.794,20.181Z" transform="translate(0 -15.098)"/></svg>