<svg xmlns="http://www.w3.org/2000/svg" width="59.611" height="57.753" viewBox="0 0 59.611 57.753"><defs><style>.a{fill:#51c2c5;}</style></defs><g transform="translate(-54.556)"><path class="a" d="M77.868,154.035l-2.2-14.089,8.7,8.7,8.7-8.7-2.2,14.089h23.312l-2.907-18.6a8.828,8.828,0,0,0-3.25-5.591,9.32,9.32,0,1,0-11.074-.054L84.361,142.364,71.786,129.789a9.323,9.323,0,1,0-11.074.054,8.828,8.828,0,0,0-3.25,5.591l-2.907,18.6Z" transform="translate(0 -96.282)"/><path class="a" d="M166.608,10.4l11.705,11.69L190.019,10.4A6.095,6.095,0,1,0,181.4,1.785l-3.086,3.086-3.086-3.086a6.095,6.095,0,0,0-8.619,8.619Z" transform="translate(-93.952 0)"/></g></svg>