<svg xmlns="http://www.w3.org/2000/svg" width="30.281" height="30.281" viewBox="0 0 30.281 30.281"><defs><style>.a{fill:#b158a1;fill-rule:evenodd;}</style></defs><path class="a" d="M15.141,0a15,15,0,0,1,7.643,2.079,15.293,15.293,0,0,1,3.825,23.1,15.427,15.427,0,0,1-8.544,5.1V19.4h2.969l.671-4.277h-4.5v-2.8a2.434,2.434,0,0,1,.518-1.608,2.368,2.368,0,0,1,1.9-.723h2.715V6.242q-.058-.019-1.109-.149a22.042,22.042,0,0,0-2.393-.149,5.977,5.977,0,0,0-4.294,1.532,5.919,5.919,0,0,0-1.614,4.394v3.25H9.511V19.4h3.422V30.281a15.056,15.056,0,0,1-9.259-5.1A15.276,15.276,0,0,1,7.5,2.079,15.009,15.009,0,0,1,15.141,0Z" transform="translate(0 0)"/></svg>