<svg xmlns="http://www.w3.org/2000/svg" width="69" height="64" viewBox="0 0 69 64"><defs><style>.a{fill:#fff;}.b{fill:#51c2c5;}</style></defs><g transform="translate(-1548 -1178)"><circle class="a" cx="32" cy="32" r="32" transform="translate(1553 1178)"/><path class="b" d="M1.553,39.577l4.583-6.4a5.964,5.964,0,0,1,4.381-2.251H24.826V29.584H11.761a2.62,2.62,0,0,1-2.618-2.618V17.716A2.62,2.62,0,0,1,11.761,15.1H27.886A2.62,2.62,0,0,1,30.5,17.716v1.062H39.87a2.068,2.068,0,0,1,2.066,2.066v6.675a2.068,2.068,0,0,1-2.066,2.066H26.542v1.344H43.163a5.616,5.616,0,0,1,4.3,2.34l6.477,10.036a8.46,8.46,0,0,0,3.423,2.781L63.3,48.37a4.422,4.422,0,0,1,2.671,3.888V63.573A3.032,3.032,0,0,1,62.94,66.6H59.788a8.466,8.466,0,0,1-16.26,0H25.416a8.466,8.466,0,0,1-16.26,0H3.028A3.032,3.032,0,0,1,0,63.573V44.409A9.563,9.563,0,0,1,1.553,39.577Zm30.2-4.622H26.542V46.148l6.245.264ZM51.658,68.443a4.206,4.206,0,1,0-4.207-4.206A4.207,4.207,0,0,0,51.658,68.443Zm-2.779-21.35c1.106.047,1.538-.687.962-1.632l-5.367-8.789a3.993,3.993,0,0,0-3.06-1.717H35.483l1.05,11.616ZM24.826,46.076V34.955H21.116l-.987,10.922Zm-7.54,22.368a4.206,4.206,0,1,0-4.206-4.206A4.207,4.207,0,0,0,17.286,68.443ZM7.678,45.35l8.734.37.973-10.765H11.5a3.115,3.115,0,0,0-2.712,1.886L6.368,43.378A1.379,1.379,0,0,0,7.678,45.35Z" transform="translate(1548 1166.425)"/></g></svg>