<svg xmlns="http://www.w3.org/2000/svg" width="69" height="67.739" viewBox="0 0 69 67.739"><defs><style>.a{fill:#fff;}.b{fill:#b158a1;}</style></defs><g transform="translate(-1133 -1176.261)"><circle class="a" cx="32" cy="32" r="32" transform="translate(1138 1180)"/><g transform="translate(1133 1176.083)"><path class="b" d="M35.526,4.791,5.562.238A4.832,4.832,0,0,0,1.69,1.3,4.875,4.875,0,0,0,0,4.955V62.4a2.734,2.734,0,0,0,2.726,2.726h8.861V50.814a4.759,4.759,0,0,1,4.771-4.771h6.816a4.759,4.759,0,0,1,4.771,4.771V65.128H39.534V9.508a4.774,4.774,0,0,0-4.008-4.717ZM15,39.908h-4.09a2.045,2.045,0,0,1,0-4.09H15a2.045,2.045,0,0,1,0,4.09Zm0-8.179h-4.09a2.045,2.045,0,1,1,0-4.09H15a2.045,2.045,0,1,1,0,4.09Zm0-8.179h-4.09a2.045,2.045,0,1,1,0-4.09H15a2.045,2.045,0,1,1,0,4.09Zm0-8.179h-4.09a2.045,2.045,0,1,1,0-4.09H15a2.045,2.045,0,1,1,0,4.09ZM28.628,39.908h-4.09a2.045,2.045,0,1,1,0-4.09h4.09a2.045,2.045,0,0,1,0,4.09Zm0-8.179h-4.09a2.045,2.045,0,1,1,0-4.09h4.09a2.045,2.045,0,1,1,0,4.09Zm0-8.179h-4.09a2.045,2.045,0,1,1,0-4.09h4.09a2.045,2.045,0,1,1,0,4.09Zm0-8.179h-4.09a2.045,2.045,0,1,1,0-4.09h4.09a2.045,2.045,0,1,1,0,4.09Z" transform="translate(0 0)"/><path class="b" d="M34.912,13.416,15.5,9.351v39.94H33.9a4.777,4.777,0,0,0,4.771-4.771V18.078A4.748,4.748,0,0,0,34.912,13.416Zm-6.462,27.7h-4.09a2.045,2.045,0,1,1,0-4.09h4.09a2.045,2.045,0,0,1,0,4.09Zm0-8.179h-4.09a2.045,2.045,0,1,1,0-4.09h4.09a2.045,2.045,0,0,1,0,4.09Zm0-8.179h-4.09a2.045,2.045,0,1,1,0-4.09h4.09a2.045,2.045,0,0,1,0,4.09Z" transform="translate(26.76 15.837)"/></g></g></svg>