<svg xmlns="http://www.w3.org/2000/svg" width="71" height="64.276" viewBox="0 0 71 64.276"><defs><style>.a{fill:#fff;}.b{fill:#51c2c5;}</style></defs><g transform="translate(-1545 -1178)"><circle class="a" cx="32" cy="32" r="32" transform="translate(1552 1178)"/><g transform="translate(1542 1179.665)"><path class="b" d="M36.25,45.1a3.031,3.031,0,0,1-2.462-1.266l-1.75-2.45C28.587,42.042,27,43.32,27,44.073c0,1.258,3.6,3.083,9.25,3.083s9.25-1.825,9.25-3.083c0-.752-1.587-2.031-5.039-2.689l-1.749,2.45A3.031,3.031,0,0,1,36.25,45.1Z" transform="translate(0.667 1.066)"/><path class="b" d="M58.139,55H53v6.167h5.139a3.083,3.083,0,0,0,0-6.167Z" transform="translate(1.389 1.444)"/><path class="b" d="M35.628,43.705a1.006,1.006,0,0,0,1.577,0L48.98,27.221A15.317,15.317,0,0,0,36.516,3h-.2A15.317,15.317,0,0,0,23.853,27.221Zm-2.3-7.816H31.278V33.833h2.056Zm4.111,0H35.389V33.833h2.056Zm4.111,0H39.5V33.833h2.056ZM36.417,7.111A11.306,11.306,0,1,1,25.111,18.417,11.319,11.319,0,0,1,36.417,7.111Z" transform="translate(0.5 0)"/><path class="b" d="M27.059,19.276a9.263,9.263,0,0,0,8.162,8.162V25.443h2.056v1.995a9.263,9.263,0,0,0,8.162-8.162H43.443V17.221h1.995a9.263,9.263,0,0,0-8.162-8.162v1.995H35.221V9.059a9.263,9.263,0,0,0-8.162,8.162h1.995v2.056ZM38.3,16.193l2.056,6.167L34.193,20.3l-2.056-6.167Z" transform="translate(0.668 0.168)"/><path class="b" d="M11.222,45.889V13H6.083A3.087,3.087,0,0,0,3,16.083V46.919a5.111,5.111,0,0,1,3.083-1.03Z" transform="translate(0 0.278)"/><path class="b" d="M59.528,21H54.086a17.284,17.284,0,0,1-2.933,6.916l-8.715,12.2c3.607.864,5.784,2.535,5.784,4.522,0,3.338-5.824,5.139-11.306,5.139s-11.306-1.8-11.306-5.139c0-1.988,2.177-3.658,5.784-4.523l-8.715-12.2A17.272,17.272,0,0,1,19.748,21h-6.47V47.721H6.083a3.083,3.083,0,0,0,0,6.167H59.528a5.086,5.086,0,0,1,3.083,1.054V24.083A3.087,3.087,0,0,0,59.528,21Zm-37,29.805H16.361V46.694h6.167Zm1.028-7.194H15.333V41.556h8.222Zm0-4.111H15.333V37.444h8.222Zm37,12.333H50.278V49.778H60.555Zm0-4.111H50.278V45.667H60.555Zm0-4.111H50.278V41.556H60.555Zm0-4.111H50.278V37.444H60.555Z" transform="translate(0 0.5)"/></g></g></svg>