<svg xmlns="http://www.w3.org/2000/svg" xmlns:xlink="http://www.w3.org/1999/xlink" width="113.301" height="46" viewBox="0 0 113.301 46"><defs><style>.a{fill:#d7eaf1;}.b{fill:#a0489a;}.c{fill:#b158a1;}.d{fill:#51c2c5;}.e{clip-path:url(#a);}.f{clip-path:url(#b);}</style><clipPath id="a"><rect class="a" width="66" height="23" transform="translate(-0.395 0)"/></clipPath><clipPath id="b"><rect class="a" width="66" height="23" transform="translate(0.139 0.04)"/></clipPath></defs><g transform="translate(0 0)"><g transform="translate(0 2.204)"><path class="b" d="M18.852,118.09h-.807a1.558,1.558,0,0,1-1.545-1.545v-9.9a1.558,1.558,0,0,1,1.545-1.545h.807a1.558,1.558,0,0,1,1.545,1.545v9.9A1.514,1.514,0,0,1,18.852,118.09Z" transform="translate(-16.43 -77.154)"/><path class="c" d="M129.652,46.735h-.807A1.558,1.558,0,0,1,127.3,45.19V27.145a1.558,1.558,0,0,1,1.545-1.545h.807a1.558,1.558,0,0,1,1.545,1.545V45.19A1.558,1.558,0,0,1,129.652,46.735Z" transform="translate(-88.33 -25.565)"/><path class="c" d="M129.652,118.09h-.807a1.558,1.558,0,0,1-1.545-1.545v-9.9a1.558,1.558,0,0,1,1.545-1.545h.807a1.558,1.558,0,0,1,1.545,1.545v9.9A1.558,1.558,0,0,1,129.652,118.09Z" transform="translate(-88.33 -77.154)"/><path class="c" d="M63.552,124.255h-.808A1.558,1.558,0,0,1,61.2,122.71v-6.565a1.558,1.558,0,0,1,1.545-1.545h.808a1.558,1.558,0,0,1,1.545,1.545v6.53A1.566,1.566,0,0,1,63.552,124.255Z" transform="translate(-45.436 -83.318)"/><path class="c" d="M63.552,35.42h-.808A1.558,1.558,0,0,1,61.2,33.875v-6.53A1.558,1.558,0,0,1,62.745,25.8h.808A1.558,1.558,0,0,1,65.1,27.345v6.53A1.558,1.558,0,0,1,63.552,35.42Z" transform="translate(-45.436 -25.695)"/><path class="c" d="M107.352,35.42h-.807A1.558,1.558,0,0,1,105,33.875v-6.53a1.558,1.558,0,0,1,1.545-1.545h.807a1.558,1.558,0,0,1,1.545,1.545v6.53A1.558,1.558,0,0,1,107.352,35.42Z" transform="translate(-73.859 -25.695)"/><path class="d" d="M85.452,35.42h-.807A1.558,1.558,0,0,1,83.1,33.875v-6.53A1.558,1.558,0,0,1,84.645,25.8h.807A1.558,1.558,0,0,1,87,27.345v6.53A1.514,1.514,0,0,1,85.452,35.42Z" transform="translate(-59.648 -25.695)"/><path class="c" d="M107.352,102.327h-.807A1.558,1.558,0,0,1,105,100.782V82.245a1.558,1.558,0,0,1,1.545-1.545h.807a1.558,1.558,0,0,1,1.545,1.545v18.537A1.558,1.558,0,0,1,107.352,102.327Z" transform="translate(-73.859 -61.32)"/><path class="d" d="M65.442,60.415v.667A1.634,1.634,0,0,1,63.827,62.7H58.315V86.4A1.634,1.634,0,0,1,56.7,88.01h-.667A1.634,1.634,0,0,1,54.418,86.4V75.933H42.8V86.4a1.634,1.634,0,0,1-1.615,1.615h-.667A1.634,1.634,0,0,1,38.9,86.4V60.415A1.634,1.634,0,0,1,40.515,58.8h.667A1.634,1.634,0,0,1,42.8,60.415V72.036H54.418V62.7H48.906a1.634,1.634,0,0,1-1.615-1.615v-.667A1.634,1.634,0,0,1,48.906,58.8H63.827A1.611,1.611,0,0,1,65.442,60.415Z" transform="translate(-30.966 -47.109)"/><path class="d" d="M40.345,25.5h.807A1.558,1.558,0,0,1,42.7,27.045v6.776a1.558,1.558,0,0,1-1.545,1.545h-.807A1.558,1.558,0,0,1,38.8,33.821V27.08A1.566,1.566,0,0,1,40.345,25.5Z" transform="translate(-30.901 -25.5)"/><circle class="d" cx="2.001" cy="2.001" r="2.001" transform="translate(38.97 22.54)"/><path class="c" d="M18.652,46.735h-.807A1.558,1.558,0,0,1,16.3,45.19V27.145A1.558,1.558,0,0,1,17.845,25.6h.807A1.558,1.558,0,0,1,20.2,27.145V45.19A1.536,1.536,0,0,1,18.652,46.735Z" transform="translate(-16.3 -25.565)"/><path class="c" d="M18.652,118.09h-.807a1.558,1.558,0,0,1-1.545-1.545v-9.9a1.558,1.558,0,0,1,1.545-1.545h.807a1.558,1.558,0,0,1,1.545,1.545v9.9A1.536,1.536,0,0,1,18.652,118.09Z" transform="translate(-16.3 -77.154)"/><circle class="d" cx="2.001" cy="2.001" r="2.001" transform="translate(0 22.54)"/></g><g transform="translate(47.162 0)"><g transform="translate(0.534 0)"><g class="e" transform="translate(0)"><path class="c" d="M159.6,27.575a1.475,1.475,0,1,1,2.949,0v4.775h11.586V27.575a1.475,1.475,0,1,1,2.949,0V45.48a1.475,1.475,0,1,1-2.949,0V35.3H162.549V45.48a1.475,1.475,0,1,1-2.949,0Z" transform="translate(-159.655 -24.42)"/><path class="c" d="M232.3,57.231a1.25,1.25,0,0,1-.421,1.123,1.692,1.692,0,0,1-1.053.281,1.956,1.956,0,0,1-1.053-.281,1.292,1.292,0,0,1-.421-1.123,6.824,6.824,0,0,1-4.283,1.4,6.894,6.894,0,0,1-5.126-2.142,7.028,7.028,0,0,1-2.142-5.126,6.894,6.894,0,0,1,2.142-5.126,7.028,7.028,0,0,1,5.126-2.142,6.894,6.894,0,0,1,5.126,2.142,7.068,7.068,0,0,1,2.142,5.056v5.933Zm-4.213-8.918a4.318,4.318,0,1,0,0,6.109,4.208,4.208,0,0,0,1.229-2.528v-.807A3.975,3.975,0,0,0,228.087,48.313Z" transform="translate(-197.422 -36.101)"/><path class="c" d="M270.028,32.321a1.429,1.429,0,0,1,.421,1.053V49.244a1.475,1.475,0,1,1-2.949,0V33.375a1.49,1.49,0,0,1,2.528-1.053Z" transform="translate(-229.673 -28.184)"/><path class="c" d="M286.728,32.321a1.429,1.429,0,0,1,.421,1.053V49.244a1.475,1.475,0,1,1-2.949,0V33.375a1.44,1.44,0,0,1,1.475-1.475A1.548,1.548,0,0,1,286.728,32.321Z" transform="translate(-240.51 -28.184)"/><path class="c" d="M315.4,57.231a1.25,1.25,0,0,1-.421,1.123,1.692,1.692,0,0,1-1.053.281,1.956,1.956,0,0,1-1.053-.281,1.292,1.292,0,0,1-.421-1.123,6.824,6.824,0,0,1-4.283,1.4,6.894,6.894,0,0,1-5.126-2.142,7.028,7.028,0,0,1-2.142-5.126,6.894,6.894,0,0,1,2.142-5.126,7.028,7.028,0,0,1,5.126-2.142,6.894,6.894,0,0,1,5.126,2.142,7.067,7.067,0,0,1,2.142,5.056v5.933Zm-4.213-8.918a4.318,4.318,0,1,0,0,6.109,4.208,4.208,0,0,0,1.229-2.528v-.807A3.975,3.975,0,0,0,311.187,48.313Z" transform="translate(-251.347 -36.101)"/></g></g><g transform="translate(0 22.96)"><g class="f" transform="translate(0 0)"><path class="d" d="M167.4,91.768v14.781a1.422,1.422,0,0,1-.386.948,1.3,1.3,0,0,1-.948.386,1.422,1.422,0,0,1-.948-.386,1.3,1.3,0,0,1-.386-.948V91.768h-3.9a1.422,1.422,0,0,1-.948-.386,1.3,1.3,0,0,1-.386-.948,1.356,1.356,0,0,1,.386-.948,1.3,1.3,0,0,1,.948-.386h10.427a1.422,1.422,0,0,1,.948.386,1.3,1.3,0,0,1,.386.948,1.356,1.356,0,0,1-.386.948,1.3,1.3,0,0,1-.948.386Z" transform="translate(-159.056 -86.792)"/><path class="d" d="M195.83,105.4a1.422,1.422,0,0,1,.948.386,1.3,1.3,0,0,1,.386.948,1.422,1.422,0,0,1-.386.948,1.3,1.3,0,0,1-.948.386h0a3.851,3.851,0,0,0-2.738,1.123,3.722,3.722,0,0,0-1.123,2.458v5.266a1.552,1.552,0,0,1-.386,1.123,1.3,1.3,0,0,1-.948.386,1.422,1.422,0,0,1-.948-.386,1.585,1.585,0,0,1-.386-1.159V111.86a6.2,6.2,0,0,1,1.9-4.529A6.823,6.823,0,0,1,195.83,105.4Z" transform="translate(-178.394 -97.37)"/><path class="d" d="M226.125,117.291a1.2,1.2,0,0,1-.386,1.018,1.589,1.589,0,0,1-.948.246,1.739,1.739,0,0,1-.948-.246,1.124,1.124,0,0,1-.386-.983,6.218,6.218,0,0,1-3.862,1.264,6.5,6.5,0,1,1,4.6-11.094,6.181,6.181,0,0,1,1.9,4.529v5.266Zm-3.757-7.97a3.71,3.71,0,0,0-2.738-1.123,3.85,3.85,0,0,0-2.738,1.123,3.734,3.734,0,0,0-1.123,2.738,3.851,3.851,0,0,0,1.123,2.738,3.6,3.6,0,0,0,2.738,1.123,3.887,3.887,0,0,0,3.862-3.406v-.737A3.722,3.722,0,0,0,222.369,109.321Z" transform="translate(-193.838 -97.5)"/><path class="d" d="M260.994,117.618a1.336,1.336,0,0,1-.316.456,1.272,1.272,0,0,1-1.826,0,1.335,1.335,0,0,1-.316-.456l-5.091-10.181a1.324,1.324,0,0,1-.246-.737,1.291,1.291,0,0,1,2.212-.913,1.946,1.946,0,0,1,.211.281h0l4.073,8.145,4.073-8.145h0a1.946,1.946,0,0,1,.211-.281,1.3,1.3,0,0,1,1.966,1.685Z" transform="translate(-219.86 -97.37)"/><path class="d" d="M301.675,108.514a3.968,3.968,0,0,0-1.58-.316,3.851,3.851,0,0,0-2.738,1.123,3.6,3.6,0,0,0-1.123,2.738,3.851,3.851,0,0,0,1.123,2.738,3.71,3.71,0,0,0,2.738,1.123,3.851,3.851,0,0,0,2.738-1.123l.035-.035a1.275,1.275,0,0,1,.913-.386,1.421,1.421,0,0,1,.948.386,1.3,1.3,0,0,1,.386.948,1.421,1.421,0,0,1-.386.948l-.035.035a6.5,6.5,0,1,1,0-9.2h0a1.272,1.272,0,0,1,0,1.826l-3.721,3.721a1.334,1.334,0,0,1-2.282-.948,1.421,1.421,0,0,1,.386-.948Z" transform="translate(-246.076 -97.5)"/><path class="d" d="M336.582,94.886a1.3,1.3,0,0,1,.386.948v14.219a1.422,1.422,0,0,1-.386.948,1.3,1.3,0,0,1-.948.386,1.422,1.422,0,0,1-.948-.386,1.3,1.3,0,0,1-.386-.948V95.834a1.421,1.421,0,0,1,.386-.948,1.174,1.174,0,0,1,.948-.386A1.357,1.357,0,0,1,336.582,94.886Z" transform="translate(-272.487 -90.297)"/></g></g></g></g></svg>