<svg xmlns="http://www.w3.org/2000/svg" width="65.968" height="42.872" viewBox="0 0 65.968 42.872"><defs><style>.a{fill:#51c2c5;}</style></defs><g transform="translate(-2.215 -7.748)"><path class="a" d="M42.365,40.732c-1.646-.588-4.334-.617-5.524-1.073a7.8,7.8,0,0,1-2.556-1.19c-.426-.514-.426-4.187-.426-4.187a6.764,6.764,0,0,0,1.455-2.057,22.861,22.861,0,0,0,.705-4.04s.97.411,1.352-1.528c.323-1.675.94-2.556.779-3.791s-.852-.94-.852-.94.852-1.249.852-5.495c0-4.378-3.306-8.683-9.491-8.683s-9.506,4.32-9.506,8.683c0,4.246.837,5.495.837,5.495s-.691-.294-.852.94.441,2.116.779,3.791c.382,1.954,1.352,1.528,1.352,1.528a23.081,23.081,0,0,0,.705,4.04,6.764,6.764,0,0,0,1.455,2.057s0,3.673-.426,4.187a7.511,7.511,0,0,1-2.556,1.175c-1.175.455-3.864.514-5.524,1.1A10.369,10.369,0,0,0,8.191,50.62H49.08A10.348,10.348,0,0,0,42.365,40.732Z" transform="translate(6.512 0)"/><path class="a" d="M18.156,29.808s3.511-.118,4.907-1.366c-2.277-3.453-1.043-7.478-1.513-11.24s-2.6-5.994-6.861-5.994H14.63c-4.114,0-6.332,2.233-6.8,5.994s.837,8.228-1.5,11.24c1.4,1.264,4.922,1.219,4.922,1.219h0A7.441,7.441,0,0,1,11.1,32.13a3.71,3.71,0,0,1-1.763.808A34.091,34.091,0,0,0,5.535,34a6.186,6.186,0,0,0-3.32,5.466h11.8c.323-1.175,2.542-3.276,4.7-4.378a9.866,9.866,0,0,1,3.629-.764s.558-.882-1.278-1.219a12.524,12.524,0,0,1-2.821-.984C17.965,31.792,18.156,29.808,18.156,29.808Z" transform="translate(0 3.769)"/><path class="a" d="M28.715,29.808s-3.511-.118-4.907-1.366c2.277-3.453,1.043-7.478,1.513-11.24s2.6-5.994,6.861-5.994h.059c4.114,0,6.332,2.233,6.8,5.994s-.837,8.228,1.5,11.24c-1.4,1.264-4.922,1.219-4.922,1.219h0a7.441,7.441,0,0,0,.147,2.468,3.71,3.71,0,0,0,1.763.808A34.091,34.091,0,0,1,41.336,34a6.186,6.186,0,0,1,3.32,5.466h-11.8c-.323-1.175-2.542-3.276-4.7-4.378a9.866,9.866,0,0,0-3.629-.764s-.558-.882,1.278-1.219a12.524,12.524,0,0,0,2.821-.984C28.906,31.792,28.715,29.808,28.715,29.808Z" transform="translate(23.527 3.769)"/></g></svg>