<svg xmlns="http://www.w3.org/2000/svg" width="30.281" height="30.281" viewBox="0 0 30.281 30.281"><defs><style>.a{fill:#b158a1;fill-rule:evenodd;}</style></defs><path class="a" d="M23.34,25.3a3.771,3.771,0,1,1-3.83,3.771A3.8,3.8,0,0,1,23.34,25.3Zm0-1.508A5.279,5.279,0,1,0,28.7,29.069,5.321,5.321,0,0,0,23.34,23.79Zm5.528-1.269A1.508,1.508,0,1,0,30.4,24.03,1.508,1.508,0,0,0,28.868,22.521ZM19.6,20.88h7.486a4.375,4.375,0,0,1,4.409,4.341v7.7a4.375,4.375,0,0,1-4.409,4.341H19.6a4.375,4.375,0,0,1-4.409-4.341v-7.7A4.375,4.375,0,0,1,19.6,20.88Zm-.706-1.5a5.2,5.2,0,0,0-5.241,5.16V33.6a5.2,5.2,0,0,0,5.241,5.16h8.9A5.2,5.2,0,0,0,33.03,33.6V24.538a5.2,5.2,0,0,0-5.241-5.16Zm4.449-5.451A15.141,15.141,0,1,1,8.2,29.069,15.141,15.141,0,0,1,23.34,13.928Z" transform="translate(-8.2 -13.928)"/></svg>