<svg xmlns="http://www.w3.org/2000/svg" width="18.729" height="16.461" viewBox="0 0 18.729 16.461"><defs><style>.a{fill:#fff;}</style></defs><g transform="translate(0 -31)"><path class="a" d="M189.23,31h-4.39a3.841,3.841,0,0,0-.549,7.643v1.685a.549.549,0,0,0,.937.388l2.034-2.034h1.968a3.841,3.841,0,1,0,0-7.682Zm-4.39,4.389a.549.549,0,1,1,.549-.549A.549.549,0,0,1,184.841,35.389Zm2.195,0a.549.549,0,1,1,.549-.549A.549.549,0,0,1,187.036,35.389Zm2.195,0a.549.549,0,1,1,.549-.549A.549.549,0,0,1,189.23,35.389Z" transform="translate(-174.379)"/><path class="a" d="M12.327,113.937a1.648,1.648,0,0,0,1.646-1.646V110.1a.548.548,0,0,0-.375-.52l-3.284-1.1a.549.549,0,0,0-.478.064l-1.4.931A9.658,9.658,0,0,1,4.5,105.534l.931-1.4a.549.549,0,0,0,.064-.478l-1.1-3.284a.548.548,0,0,0-.52-.375H1.646A1.641,1.641,0,0,0,0,101.638C0,107.96,6.006,113.937,12.327,113.937Z" transform="translate(0 -66.476)"/></g></svg>