<svg xmlns="http://www.w3.org/2000/svg" width="54.92" height="54.842" viewBox="0 0 54.92 54.842"><defs><style>.a{fill:#51c2c5;}</style></defs><g transform="translate(0 -0.365)"><path class="a" d="M161.084,302.154l-.032-.056a9.154,9.154,0,0,0-12.248-3.434l-6.822,3.542c.028.295.055.619.055.772a7.219,7.219,0,0,1-3.552,6.153,6.2,6.2,0,0,1-3.118.844A6.917,6.917,0,0,1,131.9,309l-.058-.035-5.858-3.722a1.607,1.607,0,0,1,1.723-2.713l5.828,3.7a3.191,3.191,0,0,0,3.34.111,4.018,4.018,0,0,0,1.821-2.436h0a3.652,3.652,0,0,0-1.914-3.956l-6.631-3.828a3.884,3.884,0,0,0-2.291-.747h-8.84v15.182h1.026l12.726,7.363a4.844,4.844,0,0,0,2.422.692,3.952,3.952,0,0,0,2.123-.612l23.5-14.769A.8.8,0,0,0,161.084,302.154Z" transform="translate(-106.272 -263.411)"/><path class="a" d="M7.93,249.207H1.607A1.607,1.607,0,0,0,0,250.814V273.19A1.607,1.607,0,0,0,1.607,274.8H7.93a1.607,1.607,0,0,0,1.607-1.607V250.814A1.607,1.607,0,0,0,7.93,249.207Z" transform="translate(0 -222.184)"/><path class="a" d="M215.772,18.27a3.785,3.785,0,0,1,.511.542,3.62,3.62,0,0,1-.134,1.095,4.548,4.548,0,0,0,.191,3.239,3.637,3.637,0,0,0,2.622,1.645,3.8,3.8,0,0,1,.714.214,3.615,3.615,0,0,1,.431,1.015,4.548,4.548,0,0,0,1.785,2.709,3.638,3.638,0,0,0,3.093.114,3.836,3.836,0,0,1,.725-.172,3.621,3.621,0,0,1,.881.663,4.548,4.548,0,0,0,2.9,1.454h.077a3.682,3.682,0,0,0,2.659-1.449,3.791,3.791,0,0,1,.542-.511,3.622,3.622,0,0,1,1.095.134,4.549,4.549,0,0,0,3.239-.191,3.637,3.637,0,0,0,1.645-2.622,3.8,3.8,0,0,1,.214-.714,3.619,3.619,0,0,1,1.015-.431,4.549,4.549,0,0,0,2.71-1.785,3.637,3.637,0,0,0,.114-3.093,3.8,3.8,0,0,1-.172-.725,3.621,3.621,0,0,1,.663-.881,4.548,4.548,0,0,0,1.454-2.9,3.638,3.638,0,0,0-1.448-2.736,3.79,3.79,0,0,1-.511-.542,3.617,3.617,0,0,1,.134-1.095,4.548,4.548,0,0,0-.191-3.239,3.638,3.638,0,0,0-2.622-1.645,3.79,3.79,0,0,1-.714-.214,3.614,3.614,0,0,1-.431-1.015,4.548,4.548,0,0,0-1.785-2.709,3.637,3.637,0,0,0-3.093-.114,3.613,3.613,0,0,1-.725.172,3.624,3.624,0,0,1-.881-.663,4.547,4.547,0,0,0-2.9-1.454h0a3.639,3.639,0,0,0-2.736,1.448,3.786,3.786,0,0,1-.542.511,3.626,3.626,0,0,1-1.095-.134,4.548,4.548,0,0,0-3.239.191A3.637,3.637,0,0,0,220.322,5a3.8,3.8,0,0,1-.214.714,3.616,3.616,0,0,1-1.015.431,4.548,4.548,0,0,0-2.709,1.785,3.637,3.637,0,0,0-.114,3.093,3.814,3.814,0,0,1,.172.725,3.623,3.623,0,0,1-.663.881,4.548,4.548,0,0,0-1.454,2.9,3.637,3.637,0,0,0,1.448,2.736Zm18.759-.656a1.607,1.607,0,1,1-2.2.588A1.607,1.607,0,0,1,234.531,17.614Zm-3.923-7.108a1.607,1.607,0,1,1,2.783,1.607l-4.928,8.535a1.607,1.607,0,1,1-2.783-1.607Zm-6.335.25a1.607,1.607,0,1,1,.588,2.2A1.607,1.607,0,0,1,224.273,10.756Z" transform="translate(-191.363)"/></g></svg>