<svg xmlns="http://www.w3.org/2000/svg" width="30.282" height="30.281" viewBox="0 0 30.282 30.281"><defs><style>.a{fill:#b158a1;fill-rule:evenodd;}</style></defs><path class="a" d="M15.141,0A15.141,15.141,0,1,0,30.282,15.141,15.078,15.078,0,0,0,15.141,0Zm11.5,14.44a3.1,3.1,0,0,1-2.8,1.122,6.65,6.65,0,0,1-1.4,3.084A12.522,12.522,0,0,1,16.4,22.711h-.14a13.459,13.459,0,0,1-7.43-.28,10.953,10.953,0,0,1-5.187-3.925A6.989,6.989,0,0,0,7.29,20.188v-.14a5.763,5.763,0,0,0,4.767-1.682v-.14a1.455,1.455,0,0,1-1.542-.561.624.624,0,0,1,.28-.841,1.094,1.094,0,0,1,.561-.561,2.733,2.733,0,0,1-2.8-1.4,2.108,2.108,0,0,1,1.542-.561c-1.542-.421-2.383-1.262-2.523-2.383.421,0,.841-.14,1.262-.14a3.4,3.4,0,0,1-1.822-2.8,16.445,16.445,0,0,1,3.365,1.262,11.9,11.9,0,0,1,2.664,1.4A4.843,4.843,0,0,1,14.72,12.9v-.14A12.587,12.587,0,0,1,16.4,9.393a4.922,4.922,0,0,1,1.122-1.4c.14-.281.421-.421.7-.7.14.14,0,.28-.28.7a3.014,3.014,0,0,1,1.822-.841c.14.14-.14.421-.7.7a5.036,5.036,0,0,1,1.542-.28c.14,0,.28.14.14.28-.14.28-.7.561-1.822.7v.14A4.216,4.216,0,0,1,22.01,9.813a6.848,6.848,0,0,1,1.822,3.224,4.318,4.318,0,0,0,2.664,0c-.28.7-.981.981-2.383,1.121v.14a5.408,5.408,0,0,0,2.523.14Z" transform="translate(0 0)"/></svg>