<svg xmlns="http://www.w3.org/2000/svg" width="31.588" height="31.588" viewBox="0 0 31.588 31.588"><defs><style>.a{fill:#b158a1;}</style></defs><g transform="translate(0 31.588) rotate(-90)"><path class="a" d="M15.794,31.588A15.794,15.794,0,1,1,31.588,15.794,15.8,15.8,0,0,1,15.794,31.588Zm0-29.614a13.82,13.82,0,1,0,13.82,13.82A13.836,13.836,0,0,0,15.794,1.974Z"/><path class="a" d="M10.25,18.762a1.979,1.979,0,0,1-2.791,0L.647,11.95A1.846,1.846,0,0,1,.426,9.378,1.846,1.846,0,0,1,3,9.6l2.794,2.794c.768.768,1.4.507,1.4-.578V1.976A1.847,1.847,0,0,1,8.851,0a1.844,1.844,0,0,1,1.662,1.974v9.842c0,1.086.628,1.347,1.4.578l2.8-2.8a1.844,1.844,0,0,1,2.573-.219,1.846,1.846,0,0,1-.219,2.573Z" transform="translate(6.942 5.923)"/></g></svg>