<svg xmlns="http://www.w3.org/2000/svg" width="31.588" height="31.588" viewBox="0 0 31.588 31.588"><defs><style>.a{opacity:0.25;}.b{fill:#b158a1;}</style></defs><g class="a" transform="translate(0 31.588) rotate(-90)"><path class="b" d="M15.794,0A15.794,15.794,0,1,0,31.588,15.794,15.8,15.8,0,0,0,15.794,0Zm0,29.614a13.82,13.82,0,1,1,13.82-13.82A13.836,13.836,0,0,1,15.794,29.614Z"/><path class="b" d="M10.25.576a1.979,1.979,0,0,0-2.791,0L.647,7.387A1.846,1.846,0,0,0,.426,9.96,1.846,1.846,0,0,0,3,9.741L5.793,6.947c.768-.768,1.4-.507,1.4.578v9.836a1.847,1.847,0,0,0,1.663,1.976,1.844,1.844,0,0,0,1.662-1.974V7.522c0-1.086.628-1.347,1.4-.578l2.8,2.8a1.844,1.844,0,0,0,2.573.219,1.846,1.846,0,0,0-.219-2.573Z" transform="translate(6.942 6.328)"/></g></svg>